<svg width="78" height="24" viewBox="0 0 78 24" xmlns="http://www.w3.org/2000/svg"><title>service-connect-ru</title><desc>Created with Sketch.</desc><path d="M9.164 23h1.775L3.834 10.795l6.53-10.46h-1.52L2.22 10.92V.334H.637V23H2.22V11.05L9.165 23zm7.608.317c2.757 0 4.88-3.107 4.88-8.4 0-5.485-2.123-8.21-4.88-8.21-2.758 0-4.882 3.074-4.882 8.4 0 5.452 2.124 8.21 4.882 8.21zm0-1.205c-1.87 0-3.392-2.124-3.392-7.1 0-4.85 1.52-7.07 3.392-7.07 1.87 0 3.39 2.06 3.39 7.07 0 4.818-1.52 7.1-3.39 7.1zm14.55.888h1.49V7.023h-1.49v7.07H25.87v-7.07h-1.49V23h1.49v-7.703h5.452V23zm11.982 0h1.49V7.023h-1.49v7.07h-5.452v-7.07h-1.49V23h1.49v-7.703h5.452V23zm5.675-7.735h7.223c.508-5.674-1.268-8.56-4.026-8.56-2.695 0-4.66 3.076-4.66 8.307 0 5.23 1.553 8.305 4.945 8.305 2.536 0 3.74-1.807 3.74-1.807l-.475-1.205s-1.11 1.712-3.233 1.712c-2.314 0-3.455-2.377-3.518-6.752zm3.2-7.323c1.614 0 2.882 1.902 2.63 6.15h-5.8c.125-3.994 1.49-6.15 3.17-6.15zm8.335 6.784L66.065 23h1.648l-5.642-8.56 5.266-7.417h-1.458l-5.357 7.513V7.023h-1.49V23h1.49v-8.274zm16.58-6.467V7.02H68.22v1.24h3.71V23h1.49V8.26h3.677z"/></svg>