<svg width="78" height="26" viewBox="0 0 78 26" xmlns="http://www.w3.org/2000/svg"><g fill="#000" fill-rule="evenodd"><path d="M8.712 12.07H1.668v10.964H.082V.248h1.586v10.517h7.044V.248H10.3v22.786H8.71zM21.34 15.003c0-5.035-1.522-7.107-3.394-7.107s-3.395 2.23-3.395 7.107c0 5.003 1.524 7.138 3.396 7.138 1.872 0 3.395-2.293 3.395-7.137m-8.28.096c0-5.355 2.125-8.446 4.886-8.446 2.76 0 4.886 2.74 4.886 8.254 0 5.32-2.126 8.444-4.886 8.444-2.76 0-4.887-2.772-4.887-8.253M27.02 15.226v6.66h1.968c2.062 0 3.522-.892 3.522-3.378 0-2.326-1.237-3.282-3.554-3.282H27.02zm0-7.075v5.96h1.84c1.746 0 2.984-.955 2.984-3.186 0-2.04-1.143-2.773-2.983-2.773h-1.84zm-1.46 14.884V6.972h3.365c2.824 0 4.346 1.34 4.346 3.888 0 1.626-.696 2.964-2.25 3.665 2.06.606 2.98 1.944 2.98 3.888 0 3.155-1.998 4.62-5.012 4.62H25.56zM44.124 15.003c0-5.035-1.524-7.107-3.396-7.107-1.872 0-3.395 2.23-3.395 7.107 0 5.003 1.523 7.138 3.395 7.138s3.396-2.293 3.396-7.137m-8.282.096c0-5.355 2.126-8.446 4.886-8.446 2.76 0 4.887 2.74 4.887 8.254 0 5.32-2.126 8.444-4.887 8.444-2.76 0-4.886-2.772-4.886-8.253M55.99 20.325l.477 1.243s-1.175 1.785-3.68 1.785c-3.206 0-5.046-3.092-5.046-8.318 0-5.29 1.81-8.38 5.077-8.38 1.65 0 2.793.636 3.49 1.496l-.412 1.595c-.698-.988-1.713-1.817-3.078-1.817-2.443 0-3.585 2.582-3.585 7.107 0 4.398 1.11 7.01 3.585 7.01 2.063 0 3.173-1.72 3.173-1.72M62.94 8.215v14.82h-1.492V8.214h-3.712V6.972h8.884v1.243zM76.36 11.848c0-.828.065-1.53.128-2.2h-.095c-.222.702-.508 1.372-.857 2.073l-5.203 11.314h-1.27V6.972h1.397v11.154c0 .86-.064 1.562-.127 2.263h.095c.222-.734.54-1.435.857-2.137l5.203-11.28h1.3v16.06h-1.427V11.85z"/></g></svg>