<svg xmlns="http://www.w3.org/2000/svg" version="1.1" width="24" height="24" viewBox="0 0 24 24"><path fill="#3f51b5" d="M12 4C15.2 4 17.8 6.4 18.7 9.7 18 10.2 17.6 10.9 17.5 11.8L17.3 13.9C15.6 13 13.8 12.2 12 12.2 10.2 12.2 8.5 13 6.7 13.9L6.5 11.8C6.4 10.9 6 10.1 5.3 9.6 6.2 6.4 8.9 4 12 4M17.1 17H7L6.7 14.5C8.5 13.6 10.2 12.8 12 12.8 13.8 12.8 15.5 13.6 17.3 14.5L17.1 17M5 19V18L3.7 14.5H3.5A2.5 2.5 0 0 1 1 12 2.5 2.5 0 0 1 3.5 9.5C4.8 9.5 5.9 10.5 6 11.8L6.5 18V19H5M19 19H17.5V18L18 11.8C18.1 10.5 19.2 9.5 20.5 9.5A2.5 2.5 0 0 1 23 12 2.5 2.5 0 0 1 20.5 14.5H20.3L19 18V19Z"/></svg>