<svg xmlns="http://www.w3.org/2000/svg" version="1.1" width="24" height="24" viewBox="0 0 24 24"><path fill="#fff" d="M17.8 12.7C17.6 12.2 16.8 11.7 15.7 12.5 14.3 13.6 12 13.6 12 13.6 12 13.6 9.7 13.6 8.3 12.5 7.2 11.7 6.5 12.2 6.2 12.7 5.7 13.7 6.2 14.2 7.5 15 8.6 15.7 10.1 16 11 16.1L10.2 16.9C9.1 18 8 19.1 7.3 19.9 6.8 20.3 6.8 21.1 7.3 21.5L7.4 21.7C7.8 22.1 8.6 22.1 9 21.7L12 18.7C13.2 19.8 14.2 20.9 15 21.7 15.5 22.1 16.2 22.1 16.6 21.7L16.8 21.5C17.2 21.1 17.2 20.3 16.8 19.9L13.8 16.9 13 16.1C14 16 15.4 15.7 16.5 15 17.8 14.2 18.3 13.7 17.8 12.7M12 4.6C13.4 4.6 14.5 5.7 14.5 7.1 14.5 8.4 13.4 9.6 12 9.6 10.6 9.6 9.5 8.4 9.5 7.1 9.5 5.7 10.6 4.6 12 4.6M12 12.1C14.8 12.1 17.1 9.9 17.1 7.1 17.1 4.3 14.8 2 12 2 9.2 2 6.9 4.3 6.9 7.1 6.9 9.9 9.2 12.1 12 12.1Z"/></svg>