<svg xmlns="http://www.w3.org/2000/svg" version="1.1" width="24" height="24" viewBox="0 0 24 24"><path fill="#fff" d="M22.5 6C21.7 6.4 20.9 6.6 20 6.7 20.9 6.2 21.6 5.3 21.9 4.3 21.1 4.8 20.1 5.2 19.2 5.4 18.4 4.5 17.3 4 16 4 13.7 4 11.7 5.9 11.7 8.3 11.7 8.6 11.8 9 11.8 9.3 8.3 9.1 5.1 7.4 3 4.8 2.6 5.4 2.4 6.2 2.4 6.9 2.4 8.4 3.2 9.8 4.3 10.5 3.6 10.5 3 10.3 2.4 10 2.4 10 2.4 10 2.4 10 2.4 12.1 3.9 13.9 5.8 14.2 5.5 14.3 5.1 14.4 4.7 14.4 4.4 14.4 4.2 14.4 3.9 14.3 4.4 16 6 17.3 7.9 17.3 6.4 18.5 4.6 19.1 2.6 19.1 2.2 19.1 1.9 19.1 1.5 19.1 3.4 20.3 5.7 21 8.1 21 16 21 20.3 14.5 20.3 8.8 20.3 8.6 20.3 8.4 20.3 8.2 21.2 7.6 21.9 6.9 22.5 6Z"/></svg>