<svg xmlns="http://www.w3.org/2000/svg" version="1.1" width="24" height="24" viewBox="0 0 24 24"><path fill="#fff" d="M19.5 14.6C21.1 16 21.4 16.7 21.5 16.8 22.1 17.9 20.8 18 20.8 18L18.2 18C18.2 18 17.6 18.1 16.9 17.6 15.9 17 15 15.2 14.3 15.5 13.6 15.7 13.6 17.2 13.6 17.2 13.6 17.2 13.6 17.5 13.5 17.6 13.3 17.8 12.9 17.7 12.9 17.7H11.8C11.8 17.7 9.2 18 7 15.7 4.6 13.1 2.4 8.1 2.4 8.1 2.4 8.1 2.3 7.8 2.4 7.7 2.6 7.5 3 7.5 3 7.5H5.7C5.7 7.5 6 7.5 6.2 7.7 6.3 7.8 6.4 8 6.4 8 6.4 8 6.9 9.1 7.5 10.1 8.6 12.1 9.1 12.6 9.5 12.3 10.1 12 9.9 9.5 9.9 9.5 9.9 9.5 9.9 8.6 9.6 8.2 9.4 7.9 9 7.8 8.8 7.8 8.6 7.8 8.9 7.4 9.2 7.2 9.7 7 10.6 7 11.6 7 12.4 7 12.7 7.1 13 7.1 13.9 7.4 13.6 8.3 13.6 10.4 13.6 11.1 13.5 12 14 12.3 14.2 12.5 14.7 12.4 16 10.2 16.6 9.1 17.1 7.9 17.1 7.9 17.1 7.9 17.2 7.7 17.3 7.6 17.5 7.5 17.7 7.5 17.7 7.5H20.6C20.6 7.5 21.5 7.4 21.6 7.8 21.8 8.2 21.3 9.2 20.1 10.7 18.2 13.3 17.9 13.1 19.5 14.6Z"/></svg>