<svg xmlns="http://www.w3.org/2000/svg" version="1.1" width="24" height="24" viewBox="0 0 24 24"><path fill="#f50057" d="M6 14A1 1 0 0 1 7 15 1 1 0 0 1 6 16 5 5 0 0 1 1 11 5 5 0 0 1 6 6C7 3.7 9.3 2 12 2 15.4 2 18.2 4.7 18.5 8L19 8A4 4 0 0 1 23 12 4 4 0 0 1 19 16H18A1 1 0 0 1 17 15 1 1 0 0 1 18 14H19A2 2 0 0 0 21 12 2 2 0 0 0 19 10H17V9A5 5 0 0 0 12 4C9.5 4 7.5 5.8 7.1 8.2 6.7 8.1 6.4 8 6 8A3 3 0 0 0 3 11 3 3 0 0 0 6 14M7.9 18.1L10.1 17.5 8.5 15.9C8.1 15.5 8.1 14.9 8.5 14.5 8.9 14.1 9.5 14.1 9.9 14.5L11.5 16.1 12.1 13.9C12.2 13.3 12.8 13 13.3 13.2 13.8 13.3 14.1 13.9 14 14.4L13.4 16.6 15.6 16C16.1 15.9 16.7 16.2 16.8 16.7 17 17.2 16.7 17.8 16.1 17.9L13.9 18.5 15.5 20.1C15.9 20.5 15.9 21.2 15.5 21.5 15.2 21.9 14.5 21.9 14.1 21.5L12.5 19.9 11.9 22.1C11.8 22.7 11.2 23 10.7 22.8 10.2 22.7 9.9 22.1 10 21.6L10.6 19.4 8.4 20C7.9 20.1 7.3 19.8 7.2 19.3 7 18.8 7.3 18.2 7.9 18.1Z"/></svg>