<svg xmlns="http://www.w3.org/2000/svg" version="1.1" width="24" height="24" viewBox="0 0 24 24"><path fill="#f50057" d="M12.7 5.5C15.1 6.5 16.4 9 15.9 11.5 17.2 12.6 18 14.2 18 16V16.2C18.3 16.1 18.7 16 19 16A3 3 0 0 1 22 19 3 3 0 0 1 19 22H6A4 4 0 0 1 2 18 4 4 0 0 1 6 14H6.3C5 12.5 4.6 10.2 5.5 8.3 6.7 5.5 10 4.2 12.7 5.5M11.9 7.3C10.2 6.5 8.1 7.3 7.3 9.1 6.9 10.1 6.9 11.2 7.4 12.1 8.5 10.8 10.2 10 12 10 12.7 10 13.4 10.1 14 10.3 13.9 9.1 13.2 7.9 11.9 7.3M13.6 3.6C13 3.4 12.5 3.2 11.9 3.1L14.4 1.8 15.3 4.7C14.8 4.3 14.2 3.9 13.6 3.6M6.1 4.4C5.6 4.8 5.2 5.2 4.8 5.6L4.9 2.8 7.9 3.5C7.3 3.7 6.7 4 6.1 4.4M18 9.7C17.9 9.1 17.8 8.6 17.6 8L20 9.5 17.9 11.7C18 11.1 18.1 10.4 18 9.7M3 11.3C3.1 11.9 3.2 12.5 3.4 13L1.1 11.5 3.1 9.3C3 9.9 3 10.6 3 11.3M19 18H16V16A4 4 0 0 0 12 12 4 4 0 0 0 8 16H6A2 2 0 0 0 4 18 2 2 0 0 0 6 20H19A1 1 0 0 0 20 19 1 1 0 0 0 19 18Z"/></svg>